<svg width="16" height="16" viewBox="0 0 16 16" fill="none" xmlns="http://www.w3.org/2000/svg">
<path fill-rule="evenodd" clip-rule="evenodd" d="M11.5258 7.17284L8.66913 5.17931V1.97225L13.8319 5.56349L11.5258 7.17284ZM12.7108 8.00003L14.3595 6.84942V9.15042L12.7108 8.00003ZM8.66913 10.8207L11.5258 8.82722L13.8319 10.4366L8.66913 14.0278V10.8207ZM4.49488 8.82722L7.3515 10.8207V14.0278L2.18897 10.4366L4.49488 8.82722ZM3.30981 8.00003L1.66138 9.15042V6.84942L3.30981 8.00003ZM7.3515 5.17931L4.49488 7.17284L2.18897 5.56349L7.3515 1.97225V5.17931ZM8.01042 9.6264L5.67994 8.00003L8.01042 6.37344L10.3409 8.00003L8.01042 9.6264ZM15.6659 5.44304C15.6624 5.42344 15.6593 5.40426 15.6544 5.3853C15.6513 5.37388 15.6476 5.3631 15.644 5.3519C15.6389 5.33509 15.6337 5.31829 15.6271 5.3017C15.6226 5.29049 15.6174 5.27929 15.6125 5.2683C15.6054 5.25278 15.5982 5.23749 15.5899 5.22262C15.584 5.21163 15.5776 5.20129 15.5712 5.19073C15.5623 5.17651 15.5532 5.1625 15.5433 5.14893C15.536 5.13902 15.5286 5.1291 15.5208 5.11941C15.5104 5.10648 15.4993 5.0942 15.4879 5.08213C15.4793 5.07287 15.4706 5.06382 15.4617 5.0552C15.4497 5.04399 15.4371 5.03322 15.4243 5.02266C15.4144 5.01469 15.4047 5.0065 15.3944 4.99918C15.3909 4.99637 15.3874 4.99314 15.3837 4.99056L8.3757 0.115546C8.15455 -0.0385153 7.86608 -0.0385153 7.64492 0.115546L0.637176 4.99056C0.633253 4.99314 0.629949 4.99637 0.626232 4.99918C0.615908 5.0065 0.606202 5.01469 0.596291 5.02266C0.583695 5.03322 0.570892 5.04399 0.559122 5.0552C0.550036 5.06382 0.541364 5.07287 0.532897 5.08213C0.521334 5.0942 0.51039 5.10648 0.499859 5.11941C0.492012 5.1291 0.484578 5.13902 0.477351 5.14893C0.467439 5.1625 0.458354 5.17651 0.449474 5.19073C0.443073 5.20129 0.436672 5.21163 0.43089 5.22262C0.422424 5.23749 0.415197 5.25278 0.408382 5.2683C0.403426 5.27929 0.398058 5.29049 0.393721 5.3017C0.38732 5.31829 0.381745 5.33509 0.376582 5.3519C0.373072 5.3631 0.369355 5.37388 0.366464 5.3853C0.361715 5.40426 0.358205 5.42344 0.354901 5.44304C0.353249 5.45296 0.350977 5.46265 0.349532 5.47256C0.345815 5.5023 0.34375 5.53225 0.34375 5.56241V10.4374C0.34375 10.4678 0.345815 10.4975 0.349532 10.5273C0.350977 10.5374 0.353249 10.5471 0.354901 10.557C0.358205 10.5762 0.361715 10.5956 0.366464 10.6145C0.369355 10.626 0.373072 10.6369 0.376582 10.6479C0.381745 10.665 0.38732 10.6818 0.393721 10.6984C0.398058 10.7098 0.403426 10.7206 0.408382 10.7315C0.415197 10.7471 0.422424 10.7624 0.43089 10.7774C0.436672 10.7882 0.443073 10.7988 0.449474 10.8089C0.458354 10.8233 0.467439 10.8371 0.477351 10.8509C0.484578 10.8613 0.492012 10.871 0.499859 10.8806C0.51039 10.8934 0.521334 10.9059 0.532897 10.9177C0.541364 10.9268 0.550036 10.936 0.559122 10.9444C0.570892 10.9558 0.583695 10.9668 0.596291 10.9774C0.606202 10.9854 0.615908 10.9933 0.626232 11.0009C0.629949 11.0037 0.633253 11.0067 0.637176 11.0093L7.64492 15.8843C7.7556 15.9614 7.8828 16 8.01042 16C8.13782 16 8.26523 15.9614 8.3757 15.8843L15.3837 11.0093C15.3874 11.0067 15.3909 11.0037 15.3944 11.0009C15.4047 10.9933 15.4144 10.9854 15.4243 10.9774C15.4371 10.9668 15.4497 10.9558 15.4617 10.9444C15.4706 10.936 15.4793 10.9268 15.4879 10.9177C15.4993 10.9059 15.5104 10.8934 15.5208 10.8806C15.5286 10.871 15.536 10.8613 15.5433 10.8509C15.5532 10.8371 15.5623 10.8233 15.5712 10.8089C15.5776 10.7988 15.584 10.7882 15.5899 10.7774C15.5982 10.7624 15.6054 10.7471 15.6125 10.7315C15.6174 10.7206 15.6226 10.7098 15.6271 10.6984C15.6337 10.6818 15.6389 10.665 15.644 10.6479C15.6476 10.6369 15.6513 10.626 15.6544 10.6145C15.6593 10.5956 15.6624 10.5762 15.6659 10.557C15.6676 10.5471 15.6699 10.5374 15.6711 10.5273C15.6748 10.4975 15.6771 10.4678 15.6771 10.4374V5.56241C15.6771 5.53225 15.6748 5.5023 15.6711 5.47256C15.6699 5.46265 15.6676 5.45296 15.6659 5.44304V5.44304Z" fill="white"/>
</svg>
