<svg width="16" height="16" viewBox="0 0 16 16" fill="none" xmlns="http://www.w3.org/2000/svg">
<g clip-path="url(#clip0_18_259)">
<rect width="16" height="16" fill="white"/>
<path d="M6.76617 5.33333C6.76617 7.17428 5.25151 8.66667 3.38308 8.66667C1.51466 8.66667 0 7.17428 0 5.33333C0 3.49238 1.51466 2 3.38308 2C5.25151 2 6.76617 3.49238 6.76617 5.33333Z" fill="#003ECB"/>
<g filter="url(#filter0_b_18_259)">
<path d="M8.82595 2.27006C9.3433 1.90998 10.0796 1.90998 10.5969 2.27005L15.4706 5.66207C15.8053 5.89502 16 6.24713 16 6.61936V12.7727C16 13.4505 15.3665 14 14.5851 14H12.6985C11.9171 14 11.2836 13.4505 11.2836 12.7727V9.81553C11.2836 9.58958 11.0724 9.40642 10.8119 9.40642H8.61094C8.35046 9.40642 8.1393 9.58958 8.1393 9.81553V12.7727C8.1393 13.4505 7.50582 14 6.72438 14H4.83781C4.05637 14 3.42288 13.4505 3.42288 12.7727V6.61936C3.42288 6.24713 3.61762 5.89502 3.95232 5.66207L8.82595 2.27006Z" fill="url(#paint0_linear_18_259)" fill-opacity="0.3"/>
</g>
<g filter="url(#filter1_b_18_259)">
<path fill-rule="evenodd" clip-rule="evenodd" d="M8.78004 2.206C9.32492 1.82676 10.098 1.82676 10.6429 2.206L15.5165 5.59801C15.8702 5.8442 16.0796 6.21923 16.0796 6.61936V12.7727C16.0796 13.5029 15.4007 14.0784 14.5851 14.0784H12.6985C11.8829 14.0784 11.204 13.5029 11.204 12.7727V9.81553C11.204 9.64199 11.0383 9.48485 10.812 9.48485H8.61096C8.38461 9.48485 8.21892 9.64199 8.21892 9.81553V12.7727C8.21892 13.5029 7.53996 14.0784 6.72439 14.0784H4.83782C4.02225 14.0784 3.34329 13.5029 3.34329 12.7727V6.61936C3.34329 6.21923 3.55269 5.8442 3.90641 5.59801L8.78004 2.206ZM10.5969 2.27006C10.0796 1.90998 9.34332 1.90998 8.82597 2.27006L3.95233 5.66207C3.61763 5.89502 3.42289 6.24713 3.42289 6.61936V12.7727C3.42289 13.4505 4.05638 14 4.83782 14H6.72439C7.50583 14 8.13931 13.4505 8.13931 12.7727V9.81553C8.13931 9.58958 8.35047 9.40642 8.61096 9.40642H10.812C11.0724 9.40642 11.2836 9.58958 11.2836 9.81553V12.7727C11.2836 13.4505 11.9171 14 12.6985 14H14.5851C15.3665 14 16 13.4505 16 12.7727V6.61936C16 6.24713 15.8053 5.89502 15.4706 5.66207L10.5969 2.27006Z" fill="url(#paint1_linear_18_259)"/>
<path fill-rule="evenodd" clip-rule="evenodd" d="M8.78004 2.206C9.32492 1.82676 10.098 1.82676 10.6429 2.206L15.5165 5.59801C15.8702 5.8442 16.0796 6.21923 16.0796 6.61936V12.7727C16.0796 13.5029 15.4007 14.0784 14.5851 14.0784H12.6985C11.8829 14.0784 11.204 13.5029 11.204 12.7727V9.81553C11.204 9.64199 11.0383 9.48485 10.812 9.48485H8.61096C8.38461 9.48485 8.21892 9.64199 8.21892 9.81553V12.7727C8.21892 13.5029 7.53996 14.0784 6.72439 14.0784H4.83782C4.02225 14.0784 3.34329 13.5029 3.34329 12.7727V6.61936C3.34329 6.21923 3.55269 5.8442 3.90641 5.59801L8.78004 2.206ZM10.5969 2.27006C10.0796 1.90998 9.34332 1.90998 8.82597 2.27006L3.95233 5.66207C3.61763 5.89502 3.42289 6.24713 3.42289 6.61936V12.7727C3.42289 13.4505 4.05638 14 4.83782 14H6.72439C7.50583 14 8.13931 13.4505 8.13931 12.7727V9.81553C8.13931 9.58958 8.35047 9.40642 8.61096 9.40642H10.812C11.0724 9.40642 11.2836 9.58958 11.2836 9.81553V12.7727C11.2836 13.4505 11.9171 14 12.6985 14H14.5851C15.3665 14 16 13.4505 16 12.7727V6.61936C16 6.24713 15.8053 5.89502 15.4706 5.66207L10.5969 2.27006Z" fill="url(#paint2_radial_18_259)"/>
</g>
</g>
<defs>
<filter id="filter0_b_18_259" x="0.422882" y="-1" width="18.5771" height="18" filterUnits="userSpaceOnUse" color-interpolation-filters="sRGB">
<feFlood flood-opacity="0" result="BackgroundImageFix"/>
<feGaussianBlur in="BackgroundImageFix" stdDeviation="1.5"/>
<feComposite in2="SourceAlpha" operator="in" result="effect1_backgroundBlur_18_259"/>
<feBlend mode="normal" in="SourceGraphic" in2="effect1_backgroundBlur_18_259" result="shape"/>
</filter>
<filter id="filter1_b_18_259" x="-26.6567" y="-28.0784" width="72.7363" height="72.1569" filterUnits="userSpaceOnUse" color-interpolation-filters="sRGB">
<feFlood flood-opacity="0" result="BackgroundImageFix"/>
<feGaussianBlur in="BackgroundImageFix" stdDeviation="15"/>
<feComposite in2="SourceAlpha" operator="in" result="effect1_backgroundBlur_18_259"/>
<feBlend mode="normal" in="SourceGraphic" in2="effect1_backgroundBlur_18_259" result="shape"/>
</filter>
<linearGradient id="paint0_linear_18_259" x1="4.76877" y1="3.10714" x2="18.0672" y2="10.324" gradientUnits="userSpaceOnUse">
<stop stop-color="#5A81FF" stop-opacity="0.9"/>
<stop offset="0.447036" stop-color="#567DFF" stop-opacity="0.955296"/>
<stop offset="1" stop-color="#4E78FF" stop-opacity="0.9"/>
</linearGradient>
<linearGradient id="paint1_linear_18_259" x1="5.17619" y1="1.4874" x2="16.8253" y2="8.61308" gradientUnits="userSpaceOnUse">
<stop offset="0.188941" stop-color="#E7F0FF" stop-opacity="0.523483"/>
<stop offset="0.526042" stop-color="#88A4FF"/>
<stop offset="1" stop-color="#B4D2FF" stop-opacity="0.1"/>
</linearGradient>
<radialGradient id="paint2_radial_18_259" cx="0" cy="0" r="1" gradientUnits="userSpaceOnUse" gradientTransform="translate(5.24669 13.6804) rotate(-49.6664) scale(9.73008 16.0472)">
<stop stop-color="white"/>
<stop offset="1" stop-color="white" stop-opacity="0"/>
</radialGradient>
<clipPath id="clip0_18_259">
<rect width="16" height="16" fill="white"/>
</clipPath>
</defs>
</svg>
