<svg width="16" height="16" viewBox="0 0 16 16" fill="none" xmlns="http://www.w3.org/2000/svg">
<rect width="16" height="16" fill="white"/>
<path d="M16 9.67946C16 10.7569 15.0554 11.5993 13.9655 11.4939L6.98478 10.8191C6.03601 10.7274 5.31274 9.9425 5.31274 9.00463L5.31274 5.58356C5.31274 4.63768 6.04804 3.84888 7.00594 3.76718L13.9866 3.17174C15.0693 3.07939 16 3.91905 16 4.98813L16 9.67946Z" fill="#003ECB"/>
<g filter="url(#filter0_b_24_291)">
<path d="M0 7.32054C0 6.24314 0.9446 5.40071 2.03452 5.50607L9.01522 6.1809C9.964 6.27262 10.6873 7.0575 10.6873 7.99537V11.4164C10.6873 12.3623 9.95196 13.1511 8.99407 13.2328L2.01337 13.8283C0.930723 13.9206 0 13.081 0 12.0119V7.32054Z" fill="url(#paint0_linear_24_291)" fill-opacity="0.3"/>
</g>
<g filter="url(#filter1_b_24_291)">
<path fill-rule="evenodd" clip-rule="evenodd" d="M9.0122 6.21115L2.0315 5.53631C0.959745 5.43271 0.030888 6.2611 0.030888 7.32054V12.0119C0.030888 13.0631 0.946099 13.8888 2.0107 13.798L8.9914 13.2026C9.93333 13.1222 10.6564 12.3466 10.6564 11.4164V7.99537C10.6564 7.07313 9.94516 6.30134 9.0122 6.21115ZM2.03452 5.50607C0.9446 5.40071 0 6.24314 0 7.32054V12.0119C0 13.081 0.930723 13.9206 2.01337 13.8283L8.99407 13.2328C9.95196 13.1511 10.6873 12.3623 10.6873 11.4164V7.99537C10.6873 7.0575 9.964 6.27262 9.01522 6.1809L2.03452 5.50607Z" fill="url(#paint1_linear_24_291)"/>
<path fill-rule="evenodd" clip-rule="evenodd" d="M9.0122 6.21115L2.0315 5.53631C0.959745 5.43271 0.030888 6.2611 0.030888 7.32054V12.0119C0.030888 13.0631 0.946099 13.8888 2.0107 13.798L8.9914 13.2026C9.93333 13.1222 10.6564 12.3466 10.6564 11.4164V7.99537C10.6564 7.07313 9.94516 6.30134 9.0122 6.21115ZM2.03452 5.50607C0.9446 5.40071 0 6.24314 0 7.32054V12.0119C0 13.081 0.930723 13.9206 2.01337 13.8283L8.99407 13.2328C9.95196 13.1511 10.6873 12.3623 10.6873 11.4164V7.99537C10.6873 7.0575 9.964 6.27262 9.01522 6.1809L2.03452 5.50607Z" fill="url(#paint2_radial_24_291)"/>
</g>
<defs>
<filter id="filter0_b_24_291" x="-3" y="2.49716" width="16.6873" height="14.3381" filterUnits="userSpaceOnUse" color-interpolation-filters="sRGB">
<feFlood flood-opacity="0" result="BackgroundImageFix"/>
<feGaussianBlur in="BackgroundImageFix" stdDeviation="1.5"/>
<feComposite in2="SourceAlpha" operator="in" result="effect1_backgroundBlur_24_291"/>
<feBlend mode="normal" in="SourceGraphic" in2="effect1_backgroundBlur_24_291" result="shape"/>
</filter>
<filter id="filter1_b_24_291" x="-30" y="-24.5028" width="70.6873" height="68.3381" filterUnits="userSpaceOnUse" color-interpolation-filters="sRGB">
<feFlood flood-opacity="0" result="BackgroundImageFix"/>
<feGaussianBlur in="BackgroundImageFix" stdDeviation="15"/>
<feComposite in2="SourceAlpha" operator="in" result="effect1_backgroundBlur_24_291"/>
<feBlend mode="normal" in="SourceGraphic" in2="effect1_backgroundBlur_24_291" result="shape"/>
</filter>
<linearGradient id="paint0_linear_24_291" x1="1.14365" y1="6.26645" x2="11.2989" y2="13.0062" gradientUnits="userSpaceOnUse">
<stop stop-color="#5A81FF" stop-opacity="0.9"/>
<stop offset="0.447036" stop-color="#567DFF" stop-opacity="0.955296"/>
<stop offset="1" stop-color="#4E78FF" stop-opacity="0.9"/>
</linearGradient>
<linearGradient id="paint1_linear_24_291" x1="1.53802" y1="5.19937" x2="10.1483" y2="11.643" gradientUnits="userSpaceOnUse">
<stop offset="0.188941" stop-color="#E7F0FF" stop-opacity="0.523483"/>
<stop offset="0.526042" stop-color="#88A4FF"/>
<stop offset="1" stop-color="#B4D2FF" stop-opacity="0.1"/>
</linearGradient>
<radialGradient id="paint2_radial_24_291" cx="0" cy="0" r="1" gradientUnits="userSpaceOnUse" gradientTransform="translate(1.59717 13.5622) rotate(-43.9104) scale(7.33521 12.2509)">
<stop stop-color="white"/>
<stop offset="1" stop-color="white" stop-opacity="0"/>
</radialGradient>
</defs>
</svg>
