<svg width="16" height="16" viewBox="0 0 16 16" fill="none" xmlns="http://www.w3.org/2000/svg">
<path d="M8.00509 1.61021e-06C6.13979 -0.00118135 4.3327 0.649478 2.8963 1.83948C1.45989 3.02947 0.484465 4.684 0.138677 6.51697C-0.207111 8.34994 0.0984782 10.2461 1.00261 11.8777C1.90673 13.5092 3.35256 14.7735 5.09009 15.452C5.02009 14.819 4.95609 13.846 5.11709 13.155C5.26309 12.53 6.05509 9.178 6.05509 9.178C6.05509 9.178 5.81609 8.699 5.81609 7.991C5.81609 6.878 6.46109 6.048 7.26409 6.048C7.94609 6.048 8.27609 6.56 8.27609 7.175C8.27609 7.861 7.83909 8.887 7.61309 9.838C7.42509 10.634 8.01309 11.284 8.79809 11.284C10.2201 11.284 11.3131 9.784 11.3131 7.62C11.3131 5.705 9.93609 4.366 7.97109 4.366C5.69509 4.366 4.35909 6.073 4.35909 7.837C4.35909 8.525 4.62409 9.262 4.95409 9.663C4.98251 9.69323 5.0026 9.73031 5.01242 9.77062C5.02223 9.81093 5.02143 9.85309 5.01009 9.893C4.94909 10.145 4.81409 10.689 4.78809 10.8C4.75309 10.946 4.67209 10.977 4.52009 10.907C3.52009 10.442 2.89609 8.981 2.89609 7.807C2.89609 5.284 4.73009 2.967 8.18209 2.967C10.9571 2.967 13.1141 4.944 13.1141 7.587C13.1141 10.344 11.3751 12.563 8.96309 12.563C8.15209 12.563 7.39009 12.142 7.12909 11.644L6.63109 13.546C6.45009 14.241 5.96209 15.112 5.63609 15.643C6.73606 15.9831 7.89648 16.0818 9.03809 15.9323C10.1797 15.7828 11.2756 15.3886 12.2509 14.7767C13.2262 14.1648 14.0579 13.3496 14.6892 12.3868C15.3206 11.424 15.7367 10.3362 15.9091 9.19787C16.0815 8.0595 16.0061 6.89733 15.6881 5.79075C15.3702 4.68418 14.8171 3.65927 14.0667 2.78604C13.3164 1.91281 12.3863 1.21184 11.3402 0.731016C10.294 0.250192 9.15644 0.000842303 8.00509 1.61021e-06Z" fill="white"/>
</svg>
