<?xml version="1.0" encoding="UTF-8"?>
<svg id="Calque_2" data-name="Calque 2" xmlns="http://www.w3.org/2000/svg" viewBox="0 0 481.8 89.04">
  <defs>
    <style>
      .cls-1 {
        fill: #003ecb;
        stroke-width: 0px;
      }
    </style>
  </defs>
  <g id="Calque_5" data-name="Calque 5">
    <g>
      <path class="cls-1" d="m184.16,87.04V3.04h16.08l49.56,60.48h-7.8V3.04h19.2v84h-15.96l-49.68-60.48h7.8v60.48h-19.2Z"/>
      <path class="cls-1" d="m149.8,87.04V22.48h18.72v64.56h-18.72Z"/>
      <path class="cls-1" d="m338.72,88c-6.88,0-12.98-1.44-18.3-4.32-5.32-2.88-9.52-6.82-12.6-11.82-3.08-5-4.62-10.7-4.62-17.1s1.54-12.22,4.62-17.22c3.08-5,7.28-8.92,12.6-11.76,5.32-2.84,11.42-4.26,18.3-4.26s12.88,1.42,18.24,4.26c5.36,2.84,9.56,6.74,12.6,11.7,3.04,4.96,4.56,10.72,4.56,17.28s-1.52,12.1-4.56,17.1c-3.04,5-7.24,8.94-12.6,11.82-5.36,2.88-11.44,4.32-18.24,4.32Zm0-15.36c3.12,0,5.92-.72,8.4-2.16,2.48-1.44,4.44-3.5,5.88-6.18,1.44-2.68,2.16-5.86,2.16-9.54s-.72-6.96-2.16-9.6c-1.44-2.64-3.4-4.68-5.88-6.12-2.48-1.44-5.28-2.16-8.4-2.16s-5.92.72-8.4,2.16c-2.48,1.44-4.46,3.48-5.94,6.12-1.48,2.64-2.22,5.84-2.22,9.6s.74,6.86,2.22,9.54c1.48,2.68,3.46,4.74,5.94,6.18,2.48,1.44,5.28,2.16,8.4,2.16Z"/>
      <path class="cls-1" d="m273.6,89.04V0h18.72v89.04h-18.72Z"/>
      <path class="cls-1" d="m448.98,56.02c0,5.52-.66,10.82-1.98,15.9-1.32,5.08-2.98,9.1-4.98,12.06l-13.44-6.24c1.84-2.96,3.34-6.46,4.5-10.5,1.16-4.04,1.74-8.02,1.74-11.94,0-4.32-.52-7.38-1.56-9.18-1.04-1.8-2.48-2.7-4.32-2.7-1.52,0-2.66.7-3.42,2.1-.76,1.4-1.34,3.26-1.74,5.58-.4,2.32-.8,4.86-1.2,7.62-.4,2.76-.94,5.54-1.62,8.34-.68,2.8-1.7,5.36-3.06,7.68-1.36,2.32-3.2,4.18-5.52,5.58-2.32,1.4-5.32,2.1-9,2.1-4.08,0-7.68-1.18-10.8-3.54-3.12-2.36-5.58-5.78-7.38-10.26-1.8-4.48-2.7-9.84-2.7-16.08,0-4.4.48-8.88,1.44-13.44.96-4.56,2.36-8.36,4.2-11.4l13.32,6.24c-1.84,3.12-3.1,6.26-3.78,9.42-.68,3.16-1.02,6.22-1.02,9.18,0,4.16.56,7.2,1.68,9.12,1.12,1.92,2.56,2.88,4.32,2.88,1.6,0,2.8-.7,3.6-2.1.8-1.4,1.44-3.26,1.92-5.58s.9-4.86,1.26-7.62c.36-2.76.9-5.54,1.62-8.34.72-2.8,1.74-5.34,3.06-7.62,1.32-2.28,3.12-4.14,5.4-5.58,2.28-1.44,5.26-2.16,8.94-2.16,4,0,7.54,1.2,10.62,3.6,3.08,2.4,5.5,5.86,7.26,10.38,1.76,4.52,2.64,10.02,2.64,16.5Z"/>
      <path class="cls-1" d="m124.75,28.12c-5.45-4.65-15.5-7.13-23.46-7.53s-13.33-.17-19.11,1.99c-24.83,9.31-28.26,44.64-39.27,48.64-6.74,2.45-10.8.44-15.24-.84-.13-.07-.26-.13-.39-.2-2.57-1.44-4.59-3.49-6.07-6.13-1.48-2.64-2.22-5.85-2.22-9.61s.74-6.97,2.22-9.61c1.48-2.64,3.5-4.69,6.07-6.13,2.56-1.44,5.45-2.16,8.65-2.16,2.96,0,5.71.72,8.23,2.16,2.52,1.44,4.63,3.69,6.31,6.73,0,0,7.45-11.26,9.98-14.79-1.87-2.05-4.08-3.79-6.62-5.22-5.05-2.84-10.98-4.27-17.79-4.27s-13.18,1.42-18.63,4.27c-5.45,2.84-9.72,6.77-12.8,11.78C1.54,42.2,0,47.95,0,54.44s1.54,12.14,4.63,17.19c3.08,5.05,7.35,9,12.8,11.84,5.45,2.84,11.66,4.27,18.63,4.27,11.5.5,19.8-4.88,24.88-12.5,7.77-11.64,10.2-28.36,22.03-36.05,6.01-4.01,12.86-3.12,16.3-3.12,5.05,0,8.79,1.12,11.24,3.37,2.44,2.24,3.67,5.37,3.67,9.37h-14.9c-6.57,0-11.9.82-15.98,2.46-4.09,1.64-7.07,3.91-8.95,6.79-1.88,2.88-2.82,6.25-2.82,10.1s.96,7.01,2.88,9.98c1.92,2.97,4.69,5.31,8.29,7.03,3.61,1.72,7.93,2.58,12.98,2.58,5.69,0,10.34-1.08,13.94-3.24,2.44-1.47,4.36-3.4,5.77-5.79v8.07h17.55v-36.9c0-9.86-2.72-17.11-8.17-21.75Zm-15.98,44.77c-2.48,1.48-5.29,2.22-8.41,2.22-3.29,0-5.87-.7-7.75-2.1-1.88-1.4-2.82-3.3-2.82-5.71,0-2.16.82-3.97,2.46-5.41,1.64-1.44,4.67-2.16,9.07-2.16h12.86v6.61c-1.12,2.88-2.93,5.07-5.41,6.55Z"/>
      <path class="cls-1" d="m470.16,83.48c-3.44,0-6.24-1-8.4-3-2.16-2-3.24-4.48-3.24-7.44s1.08-5.44,3.24-7.44c2.16-2,4.96-3,8.4-3s6.24.94,8.4,2.82c2.16,1.88,3.24,4.3,3.24,7.26,0,3.12-1.06,5.7-3.18,7.74-2.12,2.04-4.94,3.06-8.46,3.06Z"/>
    </g>
  </g>
</svg>