<?xml version="1.0" encoding="UTF-8"?>
<svg id="Calque_2" data-name="Calque 2" xmlns="http://www.w3.org/2000/svg" viewBox="0 0 386 386">
  <defs>
    <style>
      .cls-1 {
        fill: #003ecb;
      }

      .cls-1, .cls-2 {
        stroke-width: 0px;
      }

      .cls-2 {
        fill: #fff;
      }
    </style>
  </defs>
  <g id="Calque_5" data-name="Calque 5">
    <g>
      <rect class="cls-1" width="386" height="386" rx="48.15" ry="48.15"/>
      <path class="cls-2" d="m336.83,130.14c-13.69-11.67-38.95-17.92-58.95-18.92-20.26-1.01-33.49-.44-48,5-62.38,23.38-70.99,112.15-98.67,122.21-16.93,6.16-27.15,1.1-38.28-2.11-.32-.17-.65-.33-.97-.51-6.45-3.62-11.53-8.76-15.25-15.4-3.73-6.64-5.59-14.69-5.59-24.15s1.86-17.51,5.59-24.16c3.72-6.64,8.8-11.78,15.25-15.4,6.44-3.62,13.69-5.44,21.74-5.44,7.45,0,14.34,1.81,20.68,5.44,6.34,3.62,11.62,9.26,15.85,16.91,0,0,18.72-28.28,25.08-37.15-4.7-5.15-10.24-9.53-16.63-13.13-12.68-7.14-27.58-10.72-44.69-10.72s-33.11,3.58-46.8,10.72c-13.69,7.15-24.41,17.01-32.16,29.59-7.75,12.58-11.63,27.02-11.63,43.33s3.87,30.5,11.63,43.18c7.75,12.68,18.47,22.6,32.16,29.74,13.69,7.15,29.29,10.72,46.8,10.72,28.9,1.25,49.73-12.27,62.5-31.4,19.52-29.25,25.62-71.24,55.36-90.58,15.1-10.06,32.3-7.85,40.96-7.85,12.68,0,22.09,2.82,28.23,8.46,6.14,5.64,9.21,13.49,9.21,23.55h-37.44c-16.51,0-29.89,2.07-40.16,6.19-10.27,4.13-17.77,9.81-22.5,17.06-4.73,7.25-7.09,15.7-7.09,25.36s2.42,17.62,7.25,25.06c4.83,7.45,11.77,13.34,20.83,17.66,9.06,4.33,19.93,6.49,32.61,6.49,14.29,0,25.97-2.72,35.03-8.15,6.13-3.68,10.94-8.55,14.49-14.54v20.27h44.08v-92.7c0-24.76-6.85-42.98-20.53-54.65Zm-40.16,112.47c-6.24,3.73-13.28,5.59-21.13,5.59-8.26,0-14.75-1.76-19.48-5.28-4.73-3.52-7.1-8.3-7.1-14.34,0-5.44,2.06-9.96,6.19-13.59,4.12-3.62,11.73-5.44,22.8-5.44h32.31v16.61c-2.82,7.25-7.35,12.73-13.59,16.46Z"/>
    </g>
  </g>
</svg>